<svg xmlns="http://www.w3.org/2000/svg" width="980" height="378" viewBox="0 0 980 378">
<rect width="100%" height="100%" fill="#ffffff"/>
<style>text{font-family:ui-sans-serif,system-ui,-apple-system,BlinkMacSystemFont,&quot;Segoe UI&quot;,sans-serif;fill:#172033}.title{font-size:20px;font-weight:700}.heading{font-size:13px;font-weight:600;fill:#334155}.label{font-size:13px}.value{font-size:12px;fill:#475569}.axis{stroke:#cbd5e1;stroke-width:1}.grid{stroke:#e2e8f0;stroke-width:1}</style>
<text x="24" y="34" class="title">Caller-prepared writable/padded buffer: fgo</text>
<line x1="300" y1="352" x2="852" y2="352" class="axis"/>
<line x1="300.0" y1="50" x2="300.0" y2="352" class="grid"/>
<text x="300.0" y="370" class="value" text-anchor="middle">0.000 ms</text>
<line x1="438.0" y1="50" x2="438.0" y2="352" class="grid"/>
<text x="438.0" y="370" class="value" text-anchor="middle">40.2 ms</text>
<line x1="576.0" y1="50" x2="576.0" y2="352" class="grid"/>
<text x="576.0" y="370" class="value" text-anchor="middle">80.5 ms</text>
<line x1="714.0" y1="50" x2="714.0" y2="352" class="grid"/>
<text x="714.0" y="370" class="value" text-anchor="middle">121 ms</text>
<line x1="852.0" y1="50" x2="852.0" y2="352" class="grid"/>
<text x="852.0" y="370" class="value" text-anchor="middle">161 ms</text>
<text x="24" y="76" class="heading">New parser / allocator per parse</text>
<text x="24" y="100" class="label">simdjson On Demand (pad)</text>
<rect x="300" y="89" width="236.6" height="14" rx="2" fill="#9333ea"/>
<text x="864" y="100" class="value">69.0 ms</text>
<text x="24" y="124" class="label">cpp-yyjson (in-situ)</text>
<rect x="300" y="113" width="256.5" height="14" rx="2" fill="#2563eb"/>
<text x="864" y="124" class="value">74.8 ms</text>
<text x="24" y="148" class="label">yyjson (in-situ)</text>
<rect x="300" y="137" width="331.0" height="14" rx="2" fill="#16a34a"/>
<text x="864" y="148" class="value">96.5 ms</text>
<text x="24" y="172" class="label">simdjson DOM (pad)</text>
<rect x="300" y="161" width="367.2" height="14" rx="2" fill="#9333ea"/>
<text x="864" y="172" class="value">107 ms</text>
<text x="24" y="196" class="label">rapidjson (in-situ)</text>
<rect x="300" y="185" width="511.1" height="14" rx="2" fill="#dc2626"/>
<text x="864" y="196" class="value">149 ms</text>
<text x="24" y="222" class="heading">Reused parser / allocator</text>
<text x="24" y="246" class="label">cpp-yyjson (in-situ)</text>
<rect x="300" y="235" width="150.1" height="14" rx="2" fill="#2563eb"/>
<text x="864" y="246" class="value">43.8 ms</text>
<text x="24" y="270" class="label">simdjson On Demand (pad)</text>
<rect x="300" y="259" width="162.5" height="14" rx="2" fill="#9333ea"/>
<text x="864" y="270" class="value">47.4 ms</text>
<text x="24" y="294" class="label">simdjson DOM (pad)</text>
<rect x="300" y="283" width="210.8" height="14" rx="2" fill="#9333ea"/>
<text x="864" y="294" class="value">61.5 ms</text>
<text x="24" y="318" class="label">yyjson (in-situ)</text>
<rect x="300" y="307" width="225.7" height="14" rx="2" fill="#16a34a"/>
<text x="864" y="318" class="value">65.8 ms</text>
<text x="24" y="342" class="label">rapidjson (in-situ)</text>
<rect x="300" y="331" width="475.1" height="14" rx="2" fill="#dc2626"/>
<text x="864" y="342" class="value">139 ms</text>
</svg>
